<svg class="rich-terminal" viewBox="753.2 256.2 854 732" xmlns="http://www.w3.org/2000/svg">
    <style>
    /* Font and Layout Styles */
    .terminal-matrix { /* Renamed to .text-font-base for broader application */
        font-family: Fira Code, monospace;
        font-size: 20px;
        line-height: 24.4px;
        font-variant-east-asian: full-width;
    }

    .font-bold {
        font-weight: bold;
    }

    /* Background and Structural Fills */
    .bg-highlight-blue { fill: #0178d4; }

    /* Sample Background Fills (for color blocks displayed) */
    .bg-sample-blue-a { fill: #004295; }
    .bg-sample-blue-b { fill: #0053aa; }
    .bg-sample-blue-c { fill: #0065be; }
    .bg-sample-blue-d { fill: #368ae9; }
    .bg-sample-blue-e { fill: #539eff; }
    .bg-sample-blue-f { fill: #6db2ff; }

    /* Text Colors */
    .text-primary-display { fill: #ddedf9; } /* For "$primary" text */

    /* Specific Blue Text Shades (likely from a themed color palette) */
    .text-code-blue-d3 { fill: #dde6f1; } /* $primary-darken-3 */
    .text-code-muted-1 { fill: #99b3d4; } /* $text-muted */
    .text-code-disabled-1 { fill: #6089bd; } /* $text-disabled */
    .text-code-blue-d2 { fill: #dde8f3; } /* $primary-darken-2 */
    .text-code-muted-2 { fill: #99badd; } /* $text-muted */
    .text-code-disabled-2 { fill: #6094ca; } /* $text-disabled */
    .text-code-blue-d1 { fill: #ddeaf6; } /* $primary-darken-1 */
    .text-code-muted-3 { fill: #99c1e5; } /* $text-muted */
    .text-code-disabled-3 { fill: #609fd6; } /* $text-disabled */
    .text-code-muted-4 { fill: #99c9ed; } /* $text-muted for $primary line*/
    .text-code-disabled-4 { fill: #61abe4; } /* $text-disabled for $primary line*/
    .text-code-blue-l1 { fill: #e4effc; } /* $primary-lighten-1 */
    .text-code-muted-5 { fill: #aed0f6; } /* $text-muted */
    .text-code-disabled-5 { fill: #82b6f1; } /* $text-disabled */
    .text-code-blue-l2-1 { fill: #0a1421; } /* $primary-lighten-2-val1 */
    .text-code-muted-6 { fill: #213f66; } /* $text-muted */
    .text-code-disabled-6 { fill: #33619e; } /* $text-disabled */
    .text-code-blue-l3-1 { fill: #0e1721; } /* $primary-lighten-3-val1 */
    .text-code-muted-7 { fill: #2b4766; } /* $text-muted */
    .text-code-disabled-7 { fill: #436e9e; } /* $text-disabled */
    </style>

    <rect class="bg-sample-blue-a" x="753.2" y="286.5" width="854" height="24.65" shape-rendering="crispEdges"/>
    <rect class="bg-sample-blue-a" x="753.2" y="310.9" width="24.4" height="24.65" shape-rendering="crispEdges"/>
    <rect class="bg-sample-blue-a" x="777.6" y="310.9" width="97.6" height="24.65" shape-rendering="crispEdges"/>
    <rect class="bg-sample-blue-a" x="875.2" y="310.9" width="207.4" height="24.65" shape-rendering="crispEdges"/>
    <rect class="bg-sample-blue-a" x="1082.6" y="310.9" width="97.6" height="24.65" shape-rendering="crispEdges"/>
    <rect class="bg-sample-blue-a" x="1180.2" y="310.9" width="24.4" height="24.65" shape-rendering="crispEdges"/>
    <rect class="bg-sample-blue-a" x="1204.6" y="310.9" width="134.2" height="24.65" shape-rendering="crispEdges"/>
    <rect class="bg-sample-blue-a" x="1338.8" y="310.9" width="36.6" height="24.65" shape-rendering="crispEdges"/>
    <rect class="bg-sample-blue-a" x="1375.4" y="310.9" width="12.2" height="24.65" shape-rendering="crispEdges"/>
    <rect class="bg-sample-blue-a" x="1387.6" y="310.9" width="170.8" height="24.65" shape-rendering="crispEdges"/>
    <rect class="bg-sample-blue-a" x="1558.4" y="310.9" width="24.4" height="24.65" shape-rendering="crispEdges"/>
    <rect class="bg-sample-blue-a" x="1582.8" y="310.9" width="24.4" height="24.65" shape-rendering="crispEdges"/>
    <rect class="bg-sample-blue-a" x="753.2" y="335.3" width="854" height="24.65" shape-rendering="crispEdges"/>
    <rect class="bg-sample-blue-b" x="753.2" y="359.7" width="854" height="24.65" shape-rendering="crispEdges"/>
    <rect class="bg-sample-blue-b" x="753.2" y="384.1" width="24.4" height="24.65" shape-rendering="crispEdges"/>
    <rect class="bg-sample-blue-b" x="777.6" y="384.1" width="97.6" height="24.65" shape-rendering="crispEdges"/>
    <rect class="bg-sample-blue-b" x="875.2" y="384.1" width="207.4" height="24.65" shape-rendering="crispEdges"/>
    <rect class="bg-sample-blue-b" x="1082.6" y="384.1" width="97.6" height="24.65" shape-rendering="crispEdges"/>
    <rect class="bg-sample-blue-b" x="1180.2" y="384.1" width="24.4" height="24.65" shape-rendering="crispEdges"/>
    <rect class="bg-sample-blue-b" x="1204.6" y="384.1" width="134.2" height="24.65" shape-rendering="crispEdges"/>
    <rect class="bg-sample-blue-b" x="1338.8" y="384.1" width="36.6" height="24.65" shape-rendering="crispEdges"/>
    <rect class="bg-sample-blue-b" x="1375.4" y="384.1" width="12.2" height="24.65" shape-rendering="crispEdges"/>
    <rect class="bg-sample-blue-b" x="1387.6" y="384.1" width="170.8" height="24.65" shape-rendering="crispEdges"/>
    <rect class="bg-sample-blue-b" x="1558.4" y="384.1" width="24.4" height="24.65" shape-rendering="crispEdges"/>
    <rect class="bg-sample-blue-b" x="1582.8" y="384.1" width="24.4" height="24.65" shape-rendering="crispEdges"/>
    <rect class="bg-sample-blue-b" x="753.2" y="408.5" width="854" height="24.65" shape-rendering="crispEdges"/>
    <rect class="bg-sample-blue-c" x="753.2" y="432.9" width="854" height="24.65" shape-rendering="crispEdges"/>
    <rect class="bg-sample-blue-c" x="753.2" y="457.3" width="24.4" height="24.65" shape-rendering="crispEdges"/>
    <rect class="bg-sample-blue-c" x="777.6" y="457.3" width="97.6" height="24.65" shape-rendering="crispEdges"/>
    <rect class="bg-sample-blue-c" x="875.2" y="457.3" width="207.4" height="24.65" shape-rendering="crispEdges"/>
    <rect class="bg-sample-blue-c" x="1082.6" y="457.3" width="97.6" height="24.65" shape-rendering="crispEdges"/>
    <rect class="bg-sample-blue-c" x="1180.2" y="457.3" width="24.4" height="24.65" shape-rendering="crispEdges"/>
    <rect class="bg-sample-blue-c" x="1204.6" y="457.3" width="134.2" height="24.65" shape-rendering="crispEdges"/>
    <rect class="bg-sample-blue-c" x="1338.8" y="457.3" width="36.6" height="24.65" shape-rendering="crispEdges"/>
    <rect class="bg-sample-blue-c" x="1375.4" y="457.3" width="12.2" height="24.65" shape-rendering="crispEdges"/>
    <rect class="bg-sample-blue-c" x="1387.6" y="457.3" width="170.8" height="24.65" shape-rendering="crispEdges"/>
    <rect class="bg-sample-blue-c" x="1558.4" y="457.3" width="24.4" height="24.65" shape-rendering="crispEdges"/>
    <rect class="bg-sample-blue-c" x="1582.8" y="457.3" width="24.4" height="24.65" shape-rendering="crispEdges"/>
    <rect class="bg-sample-blue-c" x="753.2" y="481.7" width="854" height="24.65" shape-rendering="crispEdges"/>
    <rect class="bg-highlight-blue" x="753.2" y="506.1" width="854" height="24.65" shape-rendering="crispEdges"/>
    <rect class="bg-highlight-blue" x="753.2" y="530.5" width="24.4" height="24.65" shape-rendering="crispEdges"/>
    <rect class="bg-highlight-blue" x="777.6" y="530.5" width="146.4" height="24.65" shape-rendering="crispEdges"/>
    <rect class="bg-highlight-blue" x="924.0" y="530.5" width="97.6" height="24.65" shape-rendering="crispEdges"/>
    <rect class="bg-highlight-blue" x="1021.6" y="530.5" width="158.6" height="24.65" shape-rendering="crispEdges"/>
    <rect class="bg-highlight-blue" x="1180.2" y="530.5" width="24.4" height="24.65" shape-rendering="crispEdges"/>
    <rect class="bg-highlight-blue" x="1204.6" y="530.5" width="134.2" height="24.65" shape-rendering="crispEdges"/>
    <rect class="bg-highlight-blue" x="1338.8" y="530.5" width="36.6" height="24.65" shape-rendering="crispEdges"/>
    <rect class="bg-highlight-blue" x="1375.4" y="530.5" width="12.2" height="24.65" shape-rendering="crispEdges"/>
    <rect class="bg-highlight-blue" x="1387.6" y="530.5" width="170.8" height="24.65" shape-rendering="crispEdges"/>
    <rect class="bg-highlight-blue" x="1558.4" y="530.5" width="24.4" height="24.65" shape-rendering="crispEdges"/>
    <rect class="bg-highlight-blue" x="1582.8" y="530.5" width="24.4" height="24.65" shape-rendering="crispEdges"/>
    <rect class="bg-highlight-blue" x="753.2" y="554.9" width="854" height="24.65" shape-rendering="crispEdges"/>
    <rect class="bg-sample-blue-d" x="753.2" y="579.3" width="854" height="24.65" shape-rendering="crispEdges"/>
    <rect class="bg-sample-blue-d" x="753.2" y="603.7" width="24.4" height="24.65" shape-rendering="crispEdges"/>
    <rect class="bg-sample-blue-d" x="777.6" y="603.7" width="85.4" height="24.65" shape-rendering="crispEdges"/>
    <rect class="bg-sample-blue-d" x="863.0" y="603.7" width="219.6" height="24.65" shape-rendering="crispEdges"/>
    <rect class="bg-sample-blue-d" x="1082.6" y="603.7" width="97.6" height="24.65" shape-rendering="crispEdges"/>
    <rect class="bg-sample-blue-d" x="1180.2" y="603.7" width="24.4" height="24.65" shape-rendering="crispEdges"/>
    <rect class="bg-sample-blue-d" x="1204.6" y="603.7" width="134.2" height="24.65" shape-rendering="crispEdges"/>
    <rect class="bg-sample-blue-d" x="1338.8" y="603.7" width="36.6" height="24.65" shape-rendering="crispEdges"/>
    <rect class="bg-sample-blue-d" x="1375.4" y="603.7" width="12.2" height="24.65" shape-rendering="crispEdges"/>
    <rect class="bg-sample-blue-d" x="1387.6" y="603.7" width="170.8" height="24.65" shape-rendering="crispEdges"/>
    <rect class="bg-sample-blue-d" x="1558.4" y="603.7" width="24.4" height="24.65" shape-rendering="crispEdges"/>
    <rect class="bg-sample-blue-d" x="1582.8" y="603.7" width="24.4" height="24.65" shape-rendering="crispEdges"/>
    <rect class="bg-sample-blue-d" x="753.2" y="628.1" width="854" height="24.65" shape-rendering="crispEdges"/>
    <rect class="bg-sample-blue-e" x="753.2" y="652.5" width="854" height="24.65" shape-rendering="crispEdges"/>
    <rect class="bg-sample-blue-e" x="753.2" y="676.9" width="24.4" height="24.65" shape-rendering="crispEdges"/>
    <rect class="bg-sample-blue-e" x="777.6" y="676.9" width="85.4" height="24.65" shape-rendering="crispEdges"/>
    <rect class="bg-sample-blue-e" x="863.0" y="676.9" width="219.6" height="24.65" shape-rendering="crispEdges"/>
    <rect class="bg-sample-blue-e" x="1082.6" y="676.9" width="97.6" height="24.65" shape-rendering="crispEdges"/>
    <rect class="bg-sample-blue-e" x="1180.2" y="676.9" width="24.4" height="24.65" shape-rendering="crispEdges"/>
    <rect class="bg-sample-blue-e" x="1204.6" y="676.9" width="134.2" height="24.65" shape-rendering="crispEdges"/>
    <rect class="bg-sample-blue-e" x="1338.8" y="676.9" width="36.6" height="24.65" shape-rendering="crispEdges"/>
    <rect class="bg-sample-blue-e" x="1375.4" y="676.9" width="12.2" height="24.65" shape-rendering="crispEdges"/>
    <rect class="bg-sample-blue-e" x="1387.6" y="676.9" width="170.8" height="24.65" shape-rendering="crispEdges"/>
    <rect class="bg-sample-blue-e" x="1558.4" y="676.9" width="24.4" height="24.65" shape-rendering="crispEdges"/>
    <rect class="bg-sample-blue-e" x="1582.8" y="676.9" width="24.4" height="24.65" shape-rendering="crispEdges"/>
    <rect class="bg-sample-blue-e" x="753.2" y="701.3" width="854" height="24.65" shape-rendering="crispEdges"/>
    <rect class="bg-sample-blue-f" x="753.2" y="725.7" width="854" height="24.65" shape-rendering="crispEdges"/>
    <rect class="bg-sample-blue-f" x="753.2" y="750.1" width="24.4" height="24.65" shape-rendering="crispEdges"/>
    <rect class="bg-sample-blue-f" x="777.6" y="750.1" width="85.4" height="24.65" shape-rendering="crispEdges"/>
    <rect class="bg-sample-blue-f" x="863.0" y="750.1" width="219.6" height="24.65" shape-rendering="crispEdges"/>
    <rect class="bg-sample-blue-f" x="1082.6" y="750.1" width="97.6" height="24.65" shape-rendering="crispEdges"/>
    <rect class="bg-sample-blue-f" x="1180.2" y="750.1" width="24.4" height="24.65" shape-rendering="crispEdges"/>
    <rect class="bg-sample-blue-f" x="1204.6" y="750.1" width="134.2" height="24.65" shape-rendering="crispEdges"/>
    <rect class="bg-sample-blue-f" x="1338.8" y="750.1" width="36.6" height="24.65" shape-rendering="crispEdges"/>
    <rect class="bg-sample-blue-f" x="1375.4" y="750.1" width="12.2" height="24.65" shape-rendering="crispEdges"/>
    <rect class="bg-sample-blue-f" x="1387.6" y="750.1" width="170.8" height="24.65" shape-rendering="crispEdges"/>
    <rect class="bg-sample-blue-f" x="1558.4" y="750.1" width="24.4" height="24.65" shape-rendering="crispEdges"/>
    <rect class="bg-sample-blue-f" x="1582.8" y="750.1" width="24.4" height="24.65" shape-rendering="crispEdges"/>
    <rect class="bg-sample-blue-f" x="753.2" y="774.5" width="854" height="24.65" shape-rendering="crispEdges"/>
    
    <g class="terminal-matrix">
        <text class="text-code-blue-d3" x="875.2" y="329.4" textLength="207.4">$primary-darken-3</text>
        <text class="text-code-muted-1" x="1204.6" y="329.4" textLength="134.2">$text-muted</text>
        <text class="text-code-disabled-1" x="1387.6" y="329.4" textLength="170.8">$text-disabled</text>
        <text class="text-code-blue-d2" x="875.2" y="399.8" textLength="207.4">$primary-darken-2</text>
        <text class="text-code-muted-2" x="1204.6" y="399.8" textLength="134.2">$text-muted</text>
        <text class="text-code-disabled-2" x="1387.6" y="399.8" textLength="170.8">$text-disabled</text>
        <text class="text-code-blue-d1" x="875.2" y="469.2" textLength="207.4">$primary-darken-1</text>
        <text class="text-code-muted-3" x="1204.6" y="469.2" textLength="134.2">$text-muted</text>
        <text class="text-code-disabled-3" x="1387.6" y="469.2" textLength="170.8">$text-disabled</text>
        <text class="text-primary-display font-bold" x="924.0" y="549.0" textLength="97.6">$primary</text>
        <text class="text-code-muted-4" x="1204.6" y="549.0" textLength="134.2">$text-muted</text>
        <text class="text-code-disabled-4" x="1387.6" y="549.0" textLength="170.8">$text-disabled</text>
        <text class="text-code-blue-l1" x="863.0" y="605.2" textLength="219.6">$primary-lighten-1</text>
        <text class="text-code-muted-5" x="1204.6" y="605.2" textLength="134.2">$text-muted</text>
        <text class="text-code-disabled-5" x="1387.6" y="605.2" textLength="170.8">$text-disabled</text>
        <text class="text-code-blue-l2-1" x="863.0" y="679.6" textLength="219.6">$primary-lighten-2</text>
        <text class="text-code-muted-6" x="1204.6" y="679.6" textLength="134.2">$text-muted</text>
        <text class="text-code-disabled-6" x="1387.6" y="679.6" textLength="170.8">$text-disabled</text>
        <text class="text-code-blue-l3-1" x="863.0" y="754.0" textLength="219.6">$primary-lighten-3</text>
        <text class="text-code-muted-7" x="1204.6" y="754.0" textLength="134.2">$text-muted</text>
        <text class="text-code-disabled-7" x="1387.6" y="754.0" textLength="170.8">$text-disabled</text>
    </g>
</svg>